<svg xmlns="http://www.w3.org/2000/svg" style="display:none">
  <symbol id="ifx-icon-menu" viewBox="0 0 24 24" fill="none" stroke="currentColor" stroke-width="2" stroke-linecap="round" stroke-linejoin="round">
    <path d="M4 6h16M4 12h16M4 18h16" />
  </symbol>

  <symbol id="ifx-icon-search" viewBox="0 0 24 24" fill="none" stroke="currentColor" stroke-width="2" stroke-linecap="round" stroke-linejoin="round">
    <circle cx="11" cy="11" r="7" />
    <path d="m20 20-3.5-3.5" />
  </symbol>

  <symbol id="ifx-icon-chevron-right" viewBox="0 0 24 24" fill="none" stroke="currentColor" stroke-width="2" stroke-linecap="round" stroke-linejoin="round">
    <path d="m9 6 6 6-6 6" />
  </symbol>

  <symbol id="ifx-icon-chevron-left" viewBox="0 0 24 24" fill="none" stroke="currentColor" stroke-width="2" stroke-linecap="round" stroke-linejoin="round">
    <path d="m15 6-6 6 6 6" />
  </symbol>

  <symbol id="ifx-icon-logout" viewBox="0 0 24 24" fill="none" stroke="currentColor" stroke-width="2" stroke-linecap="round" stroke-linejoin="round">
    <path d="M9 21H5a2 2 0 0 1-2-2V5a2 2 0 0 1 2-2h4" />
    <path d="m16 17 5-5-5-5" />
    <path d="M21 12H9" />
  </symbol>

  <symbol id="ifx-icon-palette" viewBox="0 0 24 24" fill="none" stroke="currentColor" stroke-width="2" stroke-linecap="round" stroke-linejoin="round">
    <path d="M12 3a9 9 0 0 0 0 18h1.5a2.5 2.5 0 0 0 1.8-4.2 2.5 2.5 0 0 1 1.8-4.3H19a2 2 0 0 0 2-2A9 9 0 0 0 12 3Z" />
    <circle cx="7.5" cy="10.5" r="1.2" />
    <circle cx="12" cy="7.5" r="1.2" />
    <circle cx="16.5" cy="10.5" r="1.2" />
  </symbol>

  <symbol id="ifx-icon-layers" viewBox="0 0 24 24" fill="none" stroke="currentColor" stroke-width="2" stroke-linecap="round" stroke-linejoin="round">
    <path d="m12 3 9 5-9 5-9-5 9-5Z" />
    <path d="m3 13 9 5 9-5" />
  </symbol>

  <symbol id="ifx-icon-layout" viewBox="0 0 24 24" fill="none" stroke="currentColor" stroke-width="2" stroke-linecap="round" stroke-linejoin="round">
    <rect x="3" y="4" width="18" height="16" rx="2" />
    <path d="M3 9h18M9 9v11" />
  </symbol>

  <symbol id="ifx-icon-components" viewBox="0 0 24 24" fill="none" stroke="currentColor" stroke-width="2" stroke-linecap="round" stroke-linejoin="round">
    <rect x="3" y="3" width="7" height="7" rx="1.5" />
    <rect x="14" y="3" width="7" height="7" rx="1.5" />
    <rect x="3" y="14" width="7" height="7" rx="1.5" />
    <rect x="14" y="14" width="7" height="7" rx="1.5" />
  </symbol>

  <symbol id="ifx-icon-template" viewBox="0 0 24 24" fill="none" stroke="currentColor" stroke-width="2" stroke-linecap="round" stroke-linejoin="round">
    <rect x="3" y="3" width="18" height="18" rx="2" />
    <path d="M3 8h18M8 8v13" />
  </symbol>

  <symbol id="ifx-icon-users" viewBox="0 0 24 24" fill="none" stroke="currentColor" stroke-width="2" stroke-linecap="round" stroke-linejoin="round">
    <circle cx="9" cy="8" r="4" />
    <path d="M2 21a7 7 0 0 1 14 0" />
    <path d="M17 4.5a4 4 0 0 1 0 7" />
    <path d="M18.5 14.5A6 6 0 0 1 22 20" />
  </symbol>

  <symbol id="ifx-icon-edit" viewBox="0 0 24 24" fill="none" stroke="currentColor" stroke-width="2" stroke-linecap="round" stroke-linejoin="round">
    <path d="M7 7h-1a2 2 0 0 0-2 2v9a2 2 0 0 0 2 2h9a2 2 0 0 0 2-2v-1" />
    <path d="M20.385 6.585a2.1 2.1 0 0 0-2.97-2.97l-8.415 8.385v3h3l8.385-8.415z" />
    <path d="M16 5l3 3" />
  </symbol>

  <symbol id="ifx-icon-key" viewBox="0 0 24 24" fill="none" stroke="currentColor" stroke-width="2" stroke-linecap="round" stroke-linejoin="round">
    <path d="M16.555 3.843l3.602 3.602a2.877 2.877 0 0 1 0 4.069l-2.643 2.643a2.877 2.877 0 0 1-4.069 0l-.301-.301-6.558 6.558a2 2 0 0 1-1.239.578l-.175.008h-1.172a1 1 0 0 1-.993-.883l-.007-.117v-1.172a2 2 0 0 1 .467-1.284l.119-.13.414-.414h2v-2h2v-2l2.144-2.144-.301-.301a2.877 2.877 0 0 1 0-4.069l2.643-2.643a2.877 2.877 0 0 1 4.069 0z" />
    <path d="M15 9h.01" />
  </symbol>

  <symbol id="ifx-icon-lock" viewBox="0 0 24 24" fill="none" stroke="currentColor" stroke-width="2" stroke-linecap="round" stroke-linejoin="round">
    <path d="M5 13a2 2 0 0 1 2-2h10a2 2 0 0 1 2 2v6a2 2 0 0 1-2 2H7a2 2 0 0 1-2-2v-6z" />
    <path d="M11 16a1 1 0 1 0 2 0 1 1 0 0 0-2 0" />
    <path d="M8 11V7a4 4 0 1 1 8 0v4" />
  </symbol>

  <symbol id="ifx-icon-lock-open" viewBox="0 0 24 24" fill="none" stroke="currentColor" stroke-width="2" stroke-linecap="round" stroke-linejoin="round">
    <path d="M5 13a2 2 0 0 1 2-2h10a2 2 0 0 1 2 2v6a2 2 0 0 1-2 2H7a2 2 0 0 1-2-2v-6z" />
    <path d="M11 16a1 1 0 1 0 2 0 1 1 0 0 0-2 0" />
    <path d="M8 11V7a4 4 0 0 1 8 0" />
  </symbol>

  <symbol id="ifx-icon-trash" viewBox="0 0 24 24" fill="none" stroke="currentColor" stroke-width="2" stroke-linecap="round" stroke-linejoin="round">
    <path d="M4 7h16" />
    <path d="M10 11v6" />
    <path d="M14 11v6" />
    <path d="M5 7l1 12a2 2 0 0 0 2 2h8a2 2 0 0 0 2-2l1-12" />
    <path d="M9 7V4a1 1 0 0 1 1-1h4a1 1 0 0 1 1 1v3" />
  </symbol>

  <symbol id="ifx-icon-copy" viewBox="0 0 24 24" fill="none" stroke="currentColor" stroke-width="2" stroke-linecap="round" stroke-linejoin="round">
    <rect x="8" y="8" width="12" height="12" rx="2" />
    <path d="M16 8V6a2 2 0 0 0-2-2H6a2 2 0 0 0-2 2v8a2 2 0 0 0 2 2h2" />
  </symbol>
</svg>
